<?xml version="1.0" encoding="iso-8859-1"?>
<!-- Generator: Adobe Illustrator 19.0.0, SVG Export Plug-In . SVG Version: 6.00 Build 0)  -->
<svg version="1.1" id="Layer_1" xmlns="http://www.w3.org/2000/svg" xmlns:xlink="http://www.w3.org/1999/xlink" x="0px" y="0px"
	 viewBox="0 0 512.001 512.001" style="enable-background:new 0 0 512.001 512.001;" xml:space="preserve">
<path style="fill:#FFB655;" d="M272.113,255.865c0.812-4.438-0.608-8.991-3.797-12.181c-3.19-3.19-7.744-4.609-12.181-3.797
	c-17.853,3.266-227.499,24.788-254.357,72.369c-3.031,5.37-2.112,12.1,2.249,16.459l179.258,179.26
	c4.359,4.359,11.09,5.28,16.459,2.249C247.325,483.365,268.846,273.719,272.113,255.865z"/>
<path style="fill:#FF9811;" d="M267.977,286.028c2.132-15.614,3.49-26.634,4.136-30.162c0.812-4.438-0.608-8.991-3.797-12.181
	c-3.189-3.19-7.744-4.609-12.181-3.797c-17.853,3.266-227.499,24.788-254.357,72.369c-3.031,5.37-2.112,12.1,2.249,16.459
	l11.96,11.96c54.834-37.703,224.183-55.226,240.15-58.146C260.422,281.745,264.808,283.061,267.977,286.028z"/>
<path style="fill:#6A563D;" d="M272.113,255.865c0.812-4.438-0.608-8.991-3.797-12.181c-3.19-3.19-7.744-4.609-12.181-3.797
	c-6.615,1.21-39.571,4.93-79.795,11.55c13.061,41.27-5.816,54.582,14.549,102.245c16.837,39.41,35.251,43.198,52.877,64.791
	C261.258,349.701,270.112,266.802,272.113,255.865z"/>
<path style="fill:#554431;" d="M268.316,243.684c-3.19-3.19-7.744-4.609-12.181-3.797c-6.615,1.21-39.571,4.93-79.795,11.55
	c5.492,17.351,5.336,29.76,4.826,41.857c38.01-6.129,68.62-9.604,74.97-10.764c4.288-0.785,8.673,0.532,11.843,3.498
	c2.132-15.613,3.491-26.634,4.136-30.162C272.925,251.428,271.505,246.874,268.316,243.684z"/>
<path style="fill:#6A563D;" d="M29.329,354.02c5.206,5.009,5.416,1.507,4.324-2.929c-0.008-0.026-0.015-0.043-0.015-0.043
	l0.004,0.001c-7.861-31.046,5.635-52.525,16.243-63.88c5.013-6.318,1.462-6.006-1.424-5.115
	c-22.775,8.602-40.151,18.626-46.685,30.201c-3.031,5.37-2.112,12.1,2.249,16.459L29.329,354.02z"/>
<path style="fill:#554431;" d="M49.885,287.17c5.013-6.318,1.462-6.006-1.424-5.115c-22.775,8.602-40.151,18.626-46.685,30.201
	c-3.031,5.37-2.112,12.1,2.249,16.459l11.961,11.961c4.408-3.031,9.564-5.93,15.313-8.703
	C31.575,311.052,41.608,296.029,49.885,287.17z"/>
<path style="fill:#6A563D;" d="M157.9,482.591c-5.009-5.206-2.34-5.453,3.009-4.242c0.026,0.008,0.043,0.015,0.043,0.015
	l-0.001-0.004c31.046,7.861,52.525-5.635,63.88-16.242c6.318-5.013,6.006-1.462,5.115,1.424
	c-8.602,22.774-18.626,40.151-30.201,46.685c-5.37,3.031-12.1,2.112-16.459-2.249C183.285,507.977,157.868,482.59,157.9,482.591z"/>
<path style="fill:#554431;" d="M128.092,423.716l-39.808-39.808c-2.67-2.67-7.039-2.67-9.709,0l-9.677,9.677l49.519,49.519
	l9.677-9.677C130.763,430.755,130.763,426.386,128.092,423.716z"/>
<circle style="fill:#2D2D30;" cx="156.076" cy="355.922" r="13.532"/>
<path style="fill:#5F4D37;" d="M145.615,411.467l-45.082-45.082c-3.06-3.062-3.06-8.023,0-11.083c3.062-3.059,8.023-3.059,11.083,0
	l45.082,45.082c3.061,3.062,3.061,8.023,0,11.083C155.168,412.995,149.769,415.62,145.615,411.467z"/>
<path style="fill:#957856;" d="M213.271,313.768c0,0-2.918,11.096,5.902,2.277L434.98,100.237l-23.218-23.218L229.776,259.006
	c-1.881,2.464-5.953,8.611-8.3,19.858L213.271,313.768z"/>
<path style="fill:#806749;" d="M244.874,271.887L425.752,91.009l-13.989-13.99L229.776,259.006c-1.882,2.463-5.954,8.611-8.3,19.857
	l-8.206,34.905c0,0-2.917,11.096,5.902,2.277l15.282-15.282l2.12-9.018C238.921,280.498,242.993,274.35,244.874,271.887z"/>
<g>
	
		<rect x="242.806" y="249.886" transform="matrix(-0.7071 -0.7071 0.7071 -0.7071 263.7765 614.8264)" style="fill:#D9CCBC;" width="32.834" height="5.795"/>
	
		<rect x="257.82" y="234.853" transform="matrix(-0.7071 -0.7071 0.7071 -0.7071 300.0373 599.7802)" style="fill:#D9CCBC;" width="32.834" height="5.795"/>
	
		<rect x="272.849" y="219.82" transform="matrix(-0.7071 -0.7071 0.7071 -0.7071 336.3229 584.7435)" style="fill:#D9CCBC;" width="32.833" height="5.795"/>
	
		<rect x="287.871" y="204.794" transform="matrix(-0.7071 -0.7071 0.7071 -0.7071 372.591 569.7151)" style="fill:#D9CCBC;" width="32.833" height="5.795"/>
	
		<rect x="302.9" y="189.761" transform="matrix(-0.7071 -0.7071 0.7071 -0.7071 408.877 554.6794)" style="fill:#D9CCBC;" width="32.833" height="5.795"/>
	
		<rect x="317.932" y="174.736" transform="matrix(-0.7071 -0.7071 0.7071 -0.7071 445.1634 539.6593)" style="fill:#D9CCBC;" width="32.834" height="5.795"/>
	
		<rect x="332.943" y="159.71" transform="matrix(-0.7071 -0.7071 0.7071 -0.7071 481.4133 524.6227)" style="fill:#D9CCBC;" width="32.833" height="5.795"/>
	
		<rect x="347.972" y="144.677" transform="matrix(-0.7071 -0.7071 0.7071 -0.7071 517.6993 509.5868)" style="fill:#D9CCBC;" width="32.833" height="5.795"/>
	
		<rect x="362.993" y="129.651" transform="matrix(-0.7071 -0.7071 0.7071 -0.7071 553.9675 494.5584)" style="fill:#D9CCBC;" width="32.833" height="5.795"/>
	
		<rect x="378.033" y="114.608" transform="matrix(-0.7071 -0.7071 0.7071 -0.7071 590.2791 479.5132)" style="fill:#D9CCBC;" width="32.834" height="5.795"/>
	
		<rect x="393.047" y="99.575" transform="matrix(-0.7071 -0.7071 0.7071 -0.7071 626.5398 464.4669)" style="fill:#D9CCBC;" width="32.834" height="5.795"/>
</g>
<g>
	
		<rect x="244.695" y="245.288" transform="matrix(0.7071 0.7071 -0.7071 0.7071 250.0602 -107.3287)" style="fill:#C0AB91;" width="19.784" height="5.795"/>
	
		<rect x="259.721" y="230.25" transform="matrix(0.7071 0.7071 -0.7071 0.7071 243.8287 -122.3595)" style="fill:#C0AB91;" width="19.788" height="5.795"/>
	
		<rect x="274.759" y="215.223" transform="matrix(0.7071 0.7071 -0.7071 0.7071 237.608 -137.3948)" style="fill:#C0AB91;" width="19.791" height="5.795"/>
	
		<rect x="289.785" y="200.186" transform="matrix(0.7071 0.7071 -0.7071 0.7071 231.3765 -152.4257)" style="fill:#C0AB91;" width="19.795" height="5.795"/>
	
		<rect x="304.804" y="185.167" transform="matrix(0.7071 0.7071 -0.7071 0.7071 225.1559 -167.4462)" style="fill:#C0AB91;" width="19.798" height="5.795"/>
	
		<rect x="319.82" y="170.139" transform="matrix(0.7071 0.7071 -0.7071 0.7071 218.9286 -182.4666)" style="fill:#C0AB91;" width="19.803" height="5.795"/>
	
		<rect x="334.863" y="155.109" transform="matrix(0.7071 0.7071 -0.7071 0.7071 212.7076 -197.5078)" style="fill:#C0AB91;" width="19.807" height="5.795"/>
	
		<rect x="349.88" y="140.072" transform="matrix(0.7071 0.7071 -0.7071 0.7071 206.4734 -212.5315)" style="fill:#C0AB91;" width="19.81" height="5.795"/>
	
		<rect x="364.898" y="125.053" transform="matrix(0.7071 0.7071 -0.7071 0.7071 200.2524 -227.5518)" style="fill:#C0AB91;" width="19.814" height="5.795"/>
	
		<rect x="379.914" y="110.026" transform="matrix(0.7071 0.7071 -0.7071 0.7071 194.0252 -242.5722)" style="fill:#C0AB91;" width="19.818" height="5.795"/>
	
		<rect x="401.95" y="87.978" transform="matrix(-0.7071 0.7071 -0.7071 -0.7071 760.3351 -119.1646)" style="fill:#C0AB91;" width="5.795" height="19.821"/>
</g>
<path style="fill:#6A563D;" d="M508.395,29.82L482.179,3.605c-4.807-4.807-12.67-4.807-17.477,0L418.097,50.21
	c-4.807,4.807-4.807,12.67,0,17.477l1.499,1.499l-7.834,7.834l23.218,23.218l7.834-7.834l1.498,1.498
	c4.807,4.807,12.67,4.807,17.477,0l46.605-46.605C513.201,42.491,513.201,34.627,508.395,29.82z"/>
<path style="fill:#554431;" d="M433.803,82.908l-1.499-1.499c-4.807-4.807-4.807-12.671,0-17.477l46.605-46.605
	c4.116-4.116,10.471-4.696,15.231-1.761L482.179,3.605c-4.807-4.807-12.67-4.807-17.477,0L418.097,50.21
	c-4.807,4.807-4.807,12.671,0,17.477l1.499,1.499l-7.834,7.834l14.207,13.723L433.803,82.908z"/>
<g>
	<circle style="fill:#ACABB1;" cx="471.049" cy="25.042" r="6.085"/>
	<circle style="fill:#ACABB1;" cx="455.679" cy="40.412" r="6.085"/>
	<circle style="fill:#ACABB1;" cx="440.308" cy="55.776" r="6.085"/>
</g>
<g>
</g>
<g>
</g>
<g>
</g>
<g>
</g>
<g>
</g>
<g>
</g>
<g>
</g>
<g>
</g>
<g>
</g>
<g>
</g>
<g>
</g>
<g>
</g>
<g>
</g>
<g>
</g>
<g>
</g>
</svg>
